<mxfile host="app.diagrams.net" modified="2024-01-27T09:42:31.566Z" agent="Mozilla/5.0 (Windows NT 10.0; Win64; x64) AppleWebKit/537.36 (KHTML, like Gecko) Chrome/120.0.0.0 Safari/537.36" version="23.0.2" etag="Psq8CrMV00Lfvd0lYX2V" type="github">
  <diagram name="Seite-1" id="imP7-YS1QyZ1Zhcy18Xe">
    <mxGraphModel>
      <root>
        <mxCell id="0" />
        <mxCell id="1" parent="0" />
      </root>
    </mxGraphModel>
  </diagram>
</mxfile>
